<?xml version="1.0" encoding="iso-8859-1"?>
<!-- Uploaded to: SVG Repo, www.svgrepo.com, Generator: SVG Repo Mixer Tools -->
<svg fill="#000000" version="1.1" id="Layer_1" xmlns="http://www.w3.org/2000/svg" xmlns:xlink="http://www.w3.org/1999/xlink" 
	 viewBox="0 0 512.002 512.002" xml:space="preserve">
<g>
	<g>
		<g>
			<path d="M503.468,494.846h-34.133V272.979h6.75c7.919,0,14.857-4.787,17.664-12.194c2.816-7.407,0.802-15.59-5.129-20.855
				l-10.846-9.617h25.694c3.337,0,6.366-1.946,7.757-4.975c1.391-3.021,0.887-6.588-1.28-9.114l-53.845-62.711h30.302
				c3.294,0,6.298-1.903,7.714-4.881c1.408-2.978,0.981-6.502-1.109-9.054l-37.47-45.798h13.798c3.26,0,6.229-1.86,7.663-4.787
				c1.434-2.927,1.075-6.417-0.922-8.986l-59.733-76.8c-3.234-4.156-10.249-4.156-13.483,0l-59.733,76.8
				c-1.997,2.569-2.355,6.059-0.922,8.986s4.403,4.787,7.663,4.787h13.798l-16.734,20.454l-54.349-48.205
				c-20.548-19.789-52.745-19.789-73.045-0.239l-54.528,48.367l-16.674-20.378h13.798c3.26,0,6.229-1.86,7.663-4.787
				s1.075-6.417-0.922-8.986l-59.733-76.8c-3.234-4.156-10.249-4.156-13.483,0l-59.733,76.8c-1.997,2.569-2.355,6.059-0.922,8.986
				s4.403,4.787,7.663,4.787h13.798l-37.47,45.798c-2.091,2.551-2.517,6.076-1.109,9.054c1.417,2.978,4.42,4.881,7.714,4.881h30.302
				L2.058,216.224c-2.167,2.526-2.671,6.093-1.28,9.114c1.391,3.029,4.42,4.975,7.757,4.975h25.549l-10.59,9.395
				c-5.965,5.291-7.996,13.534-5.171,20.992c2.833,7.458,9.822,12.279,17.801,12.279H42.6l0.051,193.067
				c0,12.945,0.009,22.135,0.205,28.8H8.535c-4.71,0-8.533,3.823-8.533,8.533c0,4.71,3.823,8.533,8.533,8.533h42.667h145.067h17.067
				h85.333h17.067h145.067h42.667c4.71,0,8.533-3.823,8.533-8.533C512.001,498.669,508.178,494.846,503.468,494.846z
				 M409.601,22.347l42.291,54.366h-14.37H381.68h-14.37L409.601,22.347z M385.716,93.779h47.77l34.91,42.667h-30.874H381.68h-9.711
				l-12.262-10.88L385.716,93.779z M392.535,196.179c4.71,0,8.533,3.823,8.533,8.533c0,4.71-3.823,8.533-8.533,8.533h-17.067
				c-4.71,0-8.533-3.823-8.533-8.533c0-4.71,3.823-8.533,8.533-8.533H392.535z M351.131,140.772l11.938,10.59
				c1.314,1.169,2.987,1.783,4.719,1.98c-0.29,0.026-0.546,0.171-0.853,0.171h-8.533c-4.71,0-8.533-3.823-8.533-8.533
				C349.868,143.418,350.406,142.035,351.131,140.772z M302.551,136.446h18.62c4.71,0,8.533,3.823,8.533,8.533
				c0,4.71-3.823,8.533-8.533,8.533h-18.62c-4.719,0-8.533-3.823-8.533-8.533C294.017,140.269,297.832,136.446,302.551,136.446z
				 M298.668,204.713c0,4.71-3.823,8.533-8.533,8.533h-17.067c-4.71,0-8.533-3.823-8.533-8.533c0-4.71,3.823-8.533,8.533-8.533
				h17.067C294.845,196.179,298.668,200.002,298.668,204.713z M246.691,136.446h18.62c4.71,0,8.533,3.823,8.533,8.533
				c0,4.71-3.823,8.533-8.533,8.533h-18.62c-4.71,0-8.533-3.823-8.533-8.533C238.158,140.269,241.981,136.446,246.691,136.446z
				 M221.868,196.179h17.067c4.71,0,8.533,3.823,8.533,8.533c0,4.71-3.823,8.533-8.533,8.533h-17.067
				c-4.71,0-8.533-3.823-8.533-8.533C213.335,200.002,217.157,196.179,221.868,196.179z M190.841,136.446h18.611
				c4.719,0,8.533,3.823,8.533,8.533c0,4.71-3.814,8.533-8.533,8.533h-18.611c-4.71,0-8.533-3.823-8.533-8.533
				C182.307,140.269,186.13,136.446,190.841,136.446z M162.135,144.979c0,4.71-3.823,8.533-8.533,8.533h-8.533
				c-0.324,0-0.606-0.154-0.922-0.188c1.707-0.213,3.345-0.811,4.651-1.963l12.015-10.667
				C161.58,141.976,162.135,143.384,162.135,144.979z M145.068,204.713c0,4.71-3.823,8.533-8.533,8.533h-17.067
				c-4.71,0-8.533-3.823-8.533-8.533c0-4.71,3.823-8.533,8.533-8.533h17.067C141.245,196.179,145.068,200.002,145.068,204.713z
				 M102.401,22.347l42.291,54.366h-14.37H74.48H60.11L102.401,22.347z M43.607,136.446l34.91-42.667h47.77l25.95,31.718
				l-7.049,6.246l-5.299,4.702h-9.566H74.48H43.607z M53.318,213.246H27.112l51.285-59.733h42.257l-52.122,46.242L53.318,213.246z
				 M93.868,204.713c0,4.71-3.823,8.533-8.533,8.533h-6.298l13.858-12.297C93.475,202.093,93.868,203.339,93.868,204.713z
				 M179.201,418.046c0,4.71-3.823,8.533-8.533,8.533H85.335c-4.71,0-8.533-3.823-8.533-8.533v-85.333
				c0-4.71,3.823-8.533,8.533-8.533h85.333c4.71,0,8.533,3.823,8.533,8.533V418.046z M187.735,213.246h-17.067
				c-4.71,0-8.533-3.823-8.533-8.533c0-4.71,3.823-8.533,8.533-8.533h17.067c4.71,0,8.533,3.823,8.533,8.533
				C196.268,209.423,192.445,213.246,187.735,213.246z M247.468,452.179h-8.533c-4.71,0-8.533-3.823-8.533-8.533
				c0-4.71,3.823-8.533,8.533-8.533h8.533c4.71,0,8.533,3.823,8.533,8.533C256.001,448.356,252.178,452.179,247.468,452.179z
				 M315.735,494.846h-17.067v-128h-85.333v128h-17.067V358.313c0-4.71,3.823-8.533,8.533-8.533h102.4
				c4.71,0,8.533,3.823,8.533,8.533V494.846z M315.735,204.713c0-4.71,3.823-8.533,8.533-8.533h17.067
				c4.71,0,8.533,3.823,8.533,8.533c0,4.71-3.823,8.533-8.533,8.533h-17.067C319.557,213.246,315.735,209.423,315.735,204.713z
				 M435.133,418.046c0,4.71-3.823,8.533-8.533,8.533h-85.265c-4.71,0-8.533-3.823-8.533-8.533v-85.333
				c0-4.71,3.823-8.533,8.533-8.533H426.6c4.71,0,8.533,3.823,8.533,8.533V418.046z M418.135,204.713c0-1.34,0.367-2.56,0.913-3.686
				l13.773,12.22h-6.153C421.958,213.246,418.135,209.423,418.135,204.713z M458.54,213.246l-67.328-59.733h42.394l51.285,59.733
				H458.54z"/>
			<rect x="93.868" y="341.248" width="25.6" height="68.267"/>
			<rect x="349.868" y="341.248" width="25.6" height="68.267"/>
			<rect x="136.535" y="341.248" width="25.6" height="68.267"/>
			<rect x="392.535" y="341.248" width="25.532" height="68.267"/>
		</g>
	</g>
</g>
</svg>